<?xml version="1.0" encoding="utf-8"?>
<!-- Generator: Adobe Illustrator 23.0.3, SVG Export Plug-In . SVG Version: 6.00 Build 0)  -->
<svg version="1.1" id="Layer_1" xmlns="http://www.w3.org/2000/svg" xmlns:xlink="http://www.w3.org/1999/xlink" x="0px" y="0px"
	 viewBox="0 0 493 564" style="enable-background:new 0 0 493 564;" xml:space="preserve">
<style type="text/css">
	.st0{fill:#FF1DE4;stroke:#000000;stroke-width:20;stroke-miterlimit:10;}
	.st1{fill:#FFBDF7;}
</style>
<title>fpoHex</title>
<g id="Layer_1-2">
	<g>
		<polygon class="st0" points="482,418.5 482,146.5 246.5,10.6 11,146.5 11,418.5 246.5,554.4 		"/>
		<g>
			<path class="st1" d="M236.6,148.6l30.4,52.3l-10.5,6.1l-23.1-39.8L201.1,186l21.3,36.7l-10.4,6L190.7,192l-44,25.5l-7.2-12.5
				L236.6,148.6z"/>
			<path class="st1" d="M276.2,219.5c5.9,7.2,11.2,14.9,15.9,23c7.2,12.4,9.6,23.1,7.7,31.9c-1.5,8-6.7,15.3-15.4,20.3
				c-8.8,5.1-17.2,6.5-25.1,4.6c-10.9-2.5-20.8-11.2-27.9-23.5c-2.1-3.3-3.8-6.9-5-10.6l-38.9,22.6l-7.3-12.5L276.2,219.5z
				 M236.7,259.3c1.2,3.8,2.9,7.5,5,11c8.8,15.1,21.5,20.1,34.9,12.3c12.8-7.5,13.8-20.1,5.7-34c-2.2-4-4.8-7.8-7.9-11.2
				L236.7,259.3z"/>
			<path class="st1" d="M322.6,406.2c-33.4,19.4-63,9.4-77.4-15.4c-14.9-25.6-5.5-55.2,23.9-72.3c30.8-17.9,62.1-10.5,77.2,15.5
				C361.8,360.5,351.4,389.4,322.6,406.2z M277.2,331.7c-20.8,12.1-32.8,34.1-21.3,53.8c11.5,19.8,36.4,20.5,58.4,7.7
				c19.3-11.2,33.6-33,21.5-53.9C323.7,318.4,298.6,319.3,277.2,331.7z"/>
		</g>
	</g>
</g>
</svg>
